<svg width="65" height="65" xmlns="http://www.w3.org/2000/svg">

 <g>
  <title>background</title>
  <rect fill="none" id="canvas_background" height="67" width="67" y="-1" x="-1"/>
 </g>
 <g>
  <title>Layer 1</title>
  <rect stroke="#000000" rx="5" id="svg_4" height="60.333343" width="61.333327" y="2.279944" x="1.791672" stroke-width="4" fill="#ffffff"/>
  <path fill="#fc2f2f" id="svg_1" d="m48.495316,32.666647l-32.02,0c-0.933,0 -1.701,-0.802 -1.701,-1.714c0,-0.152 0.028,-0.324 0.059,-0.462l1.704,-11.899c0.145,-0.773 0.841,-0.925 1.674,-0.925l28.553,0c0.827,0 1.529,0.139 1.672,0.909l1.704,12.116c0.026,0.141 0.06,0.224 0.06,0.376c-0.001,0.912 -0.773,1.599 -1.705,1.599zm-1.281,13.345c-1.803,0 -3.265,-1.419 -3.265,-3.188c0,-1.757 1.462,-3.174 3.265,-3.174c1.791,0 3.256,1.417 3.256,3.174c0,1.769 -1.465,3.188 -3.256,3.188zm-29.501,0c-1.79,0 -3.253,-1.419 -3.253,-3.188c0,-1.757 1.463,-3.174 3.253,-3.174c1.808,0 3.268,1.417 3.268,3.174c0,1.769 -1.46,3.188 -3.268,3.188zm5.62,-35.345l20,0l0,3l-20,0c-2,0 -2,-3 0,-3zm28.202,4.59c-0.584,-2.813 -2.29,-3.946 -5.073,-5.078c-2.778,-1.128 -9.216,-2.48 -14.058,-2.48c-4.863,0 -11.334,1.353 -14.115,2.48c-2.782,1.133 -4.46,2.265 -5.039,5.078l-1.917,15.659l0,21.751l3,0l0,2c0,4 5,4 5,0l0,-2l25,0l0,2c0,4 6,4 6,0l0,-2l3,0l0,-21.751l-1.798,-15.659z" class="icon-bus"/>
 </g>
</svg>