<svg width="1000" height="1000" xmlns="http://www.w3.org/2000/svg">
 <metadata>Svg Vector Icons : http://www.onlinewebfonts.com/icon</metadata>

 <g>
  <title>background</title>
  <rect fill="none" id="canvas_background" height="1002" width="1002" y="-1" x="-1"/>
 </g>
 <g>
  <title>Layer 1</title>
  <rect stroke="#000" id="svg_11" height="441.666684" width="823.333355" y="86.666666" x="89.166663" stroke-width="0" fill="#ffff72"/>
  <rect stroke="#000" id="svg_12" height="361.666578" width="826.666667" y="556.666749" x="87.833337" stroke-opacity="null" stroke-width="0" fill="#ff5c49"/>
  <g id="svg_1">
   <g id="svg_2">
    <path id="svg_3" d="m769.8,456.4l0,0l0,0z"/>
    <path id="svg_4" d="m89.4,167.4c0,-43 35,-78 78,-78l665.1,0c43,0 78,35 78,78l0,361l79.5,0l0,-361c0,-86.8 -70.7,-157.4 -157.5,-157.4l-665.1,0c-86.8,0 -157.4,70.6 -157.4,157.4l0,361l79.4,0l0,-361z"/>
    <path id="svg_5" d="m910.6,832.6c0,43 -35,78 -78,78l-665.2,0c-43,0 -78,-35 -78,-78l0,-277.7l-79.4,0l0,277.6c0,86.9 70.6,157.5 157.4,157.5l665.1,0c86.8,0 157.5,-70.6 157.5,-157.4l0,-277.7l-79.4,0l0,277.7z"/>
    <path id="svg_6" d="m434.2,309.5c0,-22 17.9,-39.9 39.9,-39.9l118.6,0l0,148.8l26.6,0l0,-148.8l118.7,0c22,0 39.9,17.9 39.9,39.9l0,108.9l42.4,0l0,-120.2c0,-38.7 -31.4,-70.1 -70.1,-70.1l-288.3,0c-38.7,0 -70.1,31.4 -70.1,70.1l0,120.2l42.4,0l0,-108.9z"/>
    <path id="svg_7" d="m391.8,436l0,147.9l43.5,0c3.9,-15 17.5,-26.2 33.8,-26.2c19.4,0 35,15.7 35,35c0,19.4 -15.7,35 -35,35c-16.3,0 -29.8,-11.2 -33.8,-26.2l-43.5,0l0,73.5l428.5,0l0,-73.5l-43.5,0c-3.9,15.1 -17.5,26.2 -33.8,26.2c-19.3,0 -35,-15.7 -35,-35c0,-19.3 15.7,-35 35,-35c16.3,0 29.8,11.2 33.8,26.2l43.5,0l0,-147.9l-428.5,0z"/>
    <path id="svg_8" d="m428.9,734.8c0,20.5 16.6,37.1 37.1,37.1c20.5,0 37.1,-16.6 37.1,-37.1l0,-39.7l-74.1,0l0,39.7l-0.1,0z"/>
    <path id="svg_9" d="m709,734.8c0,20.5 16.6,37.1 37.1,37.1c20.5,0 37.1,-16.6 37.1,-37.1l0,-39.7l-74.2,0l0,39.7l0,0z"/>
    <path id="svg_10" d="m268.3,771.9l0,-204.2l0,-26.5l0,-129.1c34,-6.7 59.7,-36.7 59.7,-72.8c0,-41 -33.2,-74.2 -74.2,-74.2c-41,0 -74.2,33.2 -74.2,74.2c0,36 25.7,66 59.7,72.8l0,129.2l0,26.5l0,204.2l29,-0.1l0,0z"/>
   </g>
  </g>
 </g>
</svg>