<?xml version="1.0" encoding="utf-8"?>
<!-- Svg Vector Icons : http://www.onlinewebfonts.com/icon -->
<!DOCTYPE svg PUBLIC "-//W3C//DTD SVG 1.1//EN" "http://www.w3.org/Graphics/SVG/1.1/DTD/svg11.dtd">
<svg version="1.1" xmlns="http://www.w3.org/2000/svg" xmlns:xlink="http://www.w3.org/1999/xlink" x="0px" y="0px" viewBox="0 0 1000 1000" enable-background="new 0 0 1000 1000" xml:space="preserve">
<metadata> Svg Vector Icons : http://www.onlinewebfonts.com/icon </metadata>
<g><g><path  d="M769.8,456.4L769.8,456.4L769.8,456.4z"/>

<path  d="M89.4,167.4c0-43,35-78,78-78h665.1c43,0,78,35,78,78v361H990v-361C990,80.6,919.3,10,832.5,10H167.4C80.6,10,10,80.6,10,167.4v361h79.4V167.4z"/>
<path d="M910.6,832.6c0,43-35,78-78,78H167.4c-43,0-78-35-78-78V554.9H10v277.6C10,919.4,80.6,990,167.4,990h665.1c86.8,0,157.5-70.6,157.5-157.4V554.9h-79.4V832.6z"/>
<path  d="M434.2,309.5c0-22,17.9-39.9,39.9-39.9h118.6v148.8h26.6V269.6H738c22,0,39.9,17.9,39.9,39.9v108.9h42.4V298.2c0-38.7-31.4-70.1-70.1-70.1H461.9c-38.7,0-70.1,31.4-70.1,70.1v120.2h42.4V309.5z"/>
<path d="M391.8,436v147.9h43.5c3.9-15,17.5-26.2,33.8-26.2c19.4,0,35,15.7,35,35c0,19.4-15.7,35-35,35c-16.3,0-29.8-11.2-33.8-26.2h-43.5V675h428.5v-73.5h-43.5c-3.9,15.1-17.5,26.2-33.8,26.2c-19.3,0-35-15.7-35-35c0-19.3,15.7-35,35-35c16.3,0,29.8,11.2,33.8,26.2h43.5V436H391.8z"/>
<path d="M428.9,734.8c0,20.5,16.6,37.1,37.1,37.1c20.5,0,37.1-16.6,37.1-37.1v-39.7h-74.1V734.8z"/>
<path d="M709,734.8c0,20.5,16.6,37.1,37.1,37.1c20.5,0,37.1-16.6,37.1-37.1v-39.7H709L709,734.8L709,734.8z"/>
<path  d="M268.3,771.9V567.7v-26.5V412.1c34-6.7,59.7-36.7,59.7-72.8c0-41-33.2-74.2-74.2-74.2c-41,0-74.2,33.2-74.2,74.2c0,36,25.7,66,59.7,72.8v129.2v26.5v204.2L268.3,771.9L268.3,771.9z"/></g></g>
</svg>