<?xml version="1.0" encoding="utf-8"?>
<!-- Svg Vector Icons : http://www.onlinewebfonts.com/icon -->
<!DOCTYPE svg PUBLIC "-//W3C//DTD SVG 1.1//EN" "http://www.w3.org/Graphics/SVG/1.1/DTD/svg11.dtd">
<svg version="1.1" xmlns="http://www.w3.org/2000/svg" xmlns:xlink="http://www.w3.org/1999/xlink" x="0px" y="0px" viewBox="0 0 1000 1000" enable-background="new 0 0 1000 1000" xml:space="preserve">
<metadata> Svg Vector Icons : http://www.onlinewebfonts.com/icon </metadata>
<g><g transform="translate(0.000000,511.000000) scale(0.100000,-0.100000)"><path d="M4588.4,4997c-900.1-111.7-1660-473-2286.3-1090.6C1667,3280.1,1285.9,2502.6,1183,1624.5c-140.2-1182.6,230-2279.8,1154.1-3429.5c400.8-499.3,1460.7-1692.8,2334.5-2630.2l330.7-354.8l488.4,573.8c1189.2,1390.6,1966.6,2327.9,2279.8,2748.4c648.2,871.6,996.4,1649.1,1064.3,2391.4c41.6,444.6-37.2,1040.2-197.1,1508.9c-94.2,273.8-326.3,727.1-497.1,965.8c-188.3,267.2-635.1,713.9-902.3,902.3c-481.8,339.4-1031.5,567.2-1620.6,665.8C5385.5,5008,4807.4,5023.3,4588.4,4997z M5291.4,3726.8c256.2-78.8,470.8-295.6,558.4-562.8c32.9-100.7,41.6-190.5,41.6-433.6c-2.2-293.5-4.4-315.4-78.8-530c-94.2-269.4-190.5-433.6-341.6-591.3c-275.9-286.9-626.3-308.8-904.5-59.1c-392,354.8-582.5,1123.5-400.8,1631.5C4327.8,3639.2,4816.2,3875.7,5291.4,3726.8z M5418.4,1011.3c381.1-50.4,687.7-302.2,832.2-687.6c72.3-192.7,313.2-1346.8,297.8-1427.9c-6.6-43.8-43.8-98.5-89.8-138l-76.7-67.9H5008.9c-1075.3,2.2-1384.1,6.6-1423.5,30.6c-70.1,37.2-135.8,142.4-135.8,216.8c0,72.3,227.7,1119.1,275.9,1274.6c144.6,451.1,468.7,753.3,854.1,797.1C4796.5,1035.4,5227.9,1035.4,5418.4,1011.3z"/></g></g>
</svg>