<?xml version="1.0" encoding="utf-8"?>
<!-- Svg Vector Icons : http://www.onlinewebfonts.com/icon -->
<!DOCTYPE svg PUBLIC "-//W3C//DTD SVG 1.1//EN" "http://www.w3.org/Graphics/SVG/1.1/DTD/svg11.dtd">
<svg version="1.1" xmlns="http://www.w3.org/2000/svg" xmlns:xlink="http://www.w3.org/1999/xlink" x="0px" y="0px" viewBox="0 0 1000 1000" enable-background="new 0 0 1000 1000" xml:space="preserve">
<metadata> Svg Vector Icons : http://www.onlinewebfonts.com/icon </metadata>
<g><g transform="translate(0.000000,511.000000) scale(0.100000,-0.100000)"><path d="M4863.1,3639.4c-116-37.3-192.6-102.2-253.5-212.3c-47.2-84.5-53.1-114-45.2-231.9c5.9-112,17.7-151.3,64.9-220.1c78.6-108.1,235.9-192.6,363.6-192.6c127.7,0,285,84.5,361.6,192.6c68.8,96.3,90.4,267.3,51.1,389.2c-39.3,116-165.1,237.8-281.1,273.2C5006.6,3672.8,4969.3,3672.8,4863.1,3639.4z"/><path d="M4521.2,2607.5c-92.4-19.7-200.5-49.1-239.8-66.8c-133.6-57-123.8-7.9-202.4-1026c-7.9-94.3-2-174.9,19.7-255.5c27.5-106.1,186.7-452.1,312.5-678.1c41.3-76.7,66.8-214.2,186.7-1071.2c76.7-540.5,139.6-988.6,139.6-996.5c0-9.8,114-15.7,255.5-15.7c247.6,0,255.5,2,265.3,45.2c5.9,23.6,66.8,457.9,137.6,967c68.8,509,139.5,959.1,153.3,1002.4c15.7,43.2,86.5,202.4,157.2,353.8c68.8,151.3,145.4,332.2,167.1,402.9c41.3,137.6,43.3,88.4-11.8,917.9c-21.6,320.4-39.3,338.1-369.5,416.7C5254.3,2658.7,4772.7,2660.6,4521.2,2607.5z"/><path d="M3754.6-442.9C2302.2-570.6,1136.6-877.2,537.2-1290C81.2-1604.4-21-1952.3,244.3-2290.4c656.5-837.3,3520.1-1340.4,6179.4-1088.9c1790.6,171,3095.6,634.8,3416,1212.7c76.7,139.5,80.6,332.1,9.8,473.7c-235.9,481.5-1187.1,896.2-2576.7,1124.2c-365.6,59-931.6,121.9-1261.8,139.5l-249.6,13.8l-17.7-66.8c-21.6-84.5-5.9-96.3,137.6-96.3c318.4,0,1204.8-104.2,1670.6-196.6c1063.3-208.3,1717.8-524.8,1825.9-882.5c149.4-503.2-970.9-996.5-2694.6-1189.1c-595.6-66.8-837.3-78.6-1670.7-78.6c-1035.8-2-1509.5,31.5-2311.4,165.1C1382.3-2540,609.9-2158.7,609.9-1726.3c0,163.1,206.4,381.3,509.1,536.6C1708.6-887,2872.1-641.4,3986.6-586.3l261.4,13.8l-13.8,60.9c-5.9,33.4-15.7,66.8-21.6,76.7C4202.7-417.3,4006.2-421.2,3754.6-442.9z"/><path d="M4177.2-808.4c-1177.3-74.7-2116.8-304.6-2429.3-591.6c-92.4-84.5-102.2-102.2-110.1-194.6c-9.8-96.3-7.9-104.2,72.7-190.7c357.7-387.2,1643.1-640.7,3262.7-642.7c1149.8-2,2030.3,102.2,2704.5,318.4c1470.2,469.8,487.5,1149.8-1882.9,1301.1c-114,7.9-131.7,3.9-139.5-27.5c-13.7-51.1,0-57,123.8-57c60.9,0,251.6-13.8,424.5-29.5c1106.6-106.1,1816.1-340,1816.1-599.5c0-222.1-558.2-430.4-1474.1-548.4c-1582.2-204.4-3626.3-59-4329.9,306.6c-630.9,330.2,57,693.8,1586.1,841.2c173,15.7,361.6,29.5,418.7,29.5c98.3,0,106.1,3.9,100.2,43.2C4314.8-800.6,4308.9-800.6,4177.2-808.4z"/></g></g>
</svg>