<svg width="65" height="65" xmlns="http://www.w3.org/2000/svg">

 <g>
  <title>background</title>
  <rect fill="none" id="canvas_background" height="67" width="67" y="-1" x="-1"/>
 </g>
 <g>
  <title>Layer 1</title>
  <rect stroke="#000000" rx="5" id="svg_4" height="60.333343" width="61.333327" y="2.279944" x="1.791672" stroke-width="4" fill="#ffffff"/>
  <metadata transform="matrix(0.016900246716446077,0,0,0.016900246716446077,0,0) ">Svg Vector Icons : http://www.onlinewebfonts.com/icon</metadata>
  <g stroke="null" id="svg_34">
   <g stroke="null" transform="matrix(0.04885910538383752,0,0,0.04885910538383752,-21.33582870061923,-16.803036719951933) " id="svg_32">
    <path stroke="null" fill="#ffbf00" id="svg_33" d="m877.758775,522.859774c-106.3,0 -193.1,86.3 -193.1,193.1l0,436.1c0,106.8 86.7,193.6 193.1,193.6l-36.4,0l-98,156.7l117.5,0l25.7,-47.1l426.8,0l29.8,46.6l117.1,0l-98,-156.7l-36.3,0c106.8,0 193.1,-86.8 193.1,-193.6l0,-435.6c0,-106.8 -86.3,-193.6 -193.1,-193.6l-448.2,0.5zm63,839.6l325.6,-0.4l30.8,46.6l-388.2,0l31.8,-46.2zm20.9,-644.2l283.6,0c86.3,0 195.4,70 195.4,156.7c0,86.8 -32.6,162.3 -119.4,162.3l-439.8,-0.5c-86.3,0 -115.2,-75.6 -115.2,-161.9c0,-86.6 109.1,-156.6 195.4,-156.6zm17.3,-111l254.6,0c15.9,0 49.1,27 49.1,42.9l-9.8,9.8l-332.6,0l-9.8,-9.8c-0.1,-15.9 32.6,-42.9 48.5,-42.9zm422.6,502.9c21.9,21.4 4.2,74.1 -39.2,117.5c-42.9,43.4 -95.6,60.7 -117.1,39.2c-21.9,-21.4 -4.2,-74.2 39.2,-117.6c42.9,-43.4 95.6,-60.6 117.1,-39.1zm-586.8,0c21.5,-21.5 74.2,-4.2 117.6,39.1c42.9,43.4 60.6,96.1 39.2,117.6c-21.9,21.5 -74.2,4.2 -117.5,-39.2c-43.5,-43.4 -60.7,-96.1 -39.3,-117.5z" class="icon-tram"/>
   </g>
  </g>
 </g>
</svg>