<?xml version="1.0" encoding="utf-8"?>
<!-- Generator: Adobe Illustrator 19.0.0, SVG Export Plug-In . SVG Version: 6.00 Build 0)  -->
<svg version="1.1" id="Layer_1" xmlns="http://www.w3.org/2000/svg" xmlns:xlink="http://www.w3.org/1999/xlink" x="0px" y="0px"
	 viewBox="0 0 512 512" style="enable-background:new 0 0 512 512;" xml:space="preserve">
<g id="XMLID_1_">
	<path id="XMLID_6_" d="M435.2,382.3V166.4c0-71.7-66.6-87-153.6-89.6l19.6-38.4H384V0H128v38.4h122l-19.6,38.4
		c-80.2,2.6-153.6,18.8-153.6,89.6v215.9c0,36.7,30.7,68.3,66.6,75.9l-41,41V512h57.2l51.2-51.2h96.4l51.2,51.2h51.2v-12.8
		l-38.4-38.4h-1.7C412.2,460.8,435.2,425.8,435.2,382.3z M256,422.4c-21.3,0-38.4-17.1-38.4-38.4s17.1-38.4,38.4-38.4
		s38.4,17.1,38.4,38.4S277.3,422.4,256,422.4z M384,307.2H128v-128h256V307.2z"/>
</g>
</svg>
