<?xml version="1.0" encoding="utf-8"?>
<!-- Svg Vector Icons : http://www.onlinewebfonts.com/icon -->
<!DOCTYPE svg PUBLIC "-//W3C//DTD SVG 1.1//EN" "http://www.w3.org/Graphics/SVG/1.1/DTD/svg11.dtd">
<svg version="1.1" xmlns="http://www.w3.org/2000/svg" xmlns:xlink="http://www.w3.org/1999/xlink" x="0px" y="0px" viewBox="0 0 1000 1000" enable-background="new 0 0 1000 1000" xml:space="preserve">
<metadata> Svg Vector Icons : http://www.onlinewebfonts.com/icon </metadata>
<g><path d="M275.9,10.5c-106.3,0-193.1,86.3-193.1,193.1v436.1c0,106.8,86.7,193.6,193.1,193.6h-36.4l-98,156.7h117.5l25.7-47.1h426.8l29.8,46.6h117.1l-98-156.7h-36.3c106.8,0,193.1-86.8,193.1-193.6V203.6C917.2,96.8,830.9,10,724.1,10L275.9,10.5z M338.9,850.1l325.6-0.4l30.8,46.6H307.1L338.9,850.1z M359.8,205.9h283.6c86.3,0,195.4,70,195.4,156.7c0,86.8-32.6,162.3-119.4,162.3l-439.8-0.5c-86.3,0-115.2-75.6-115.2-161.9C164.4,275.9,273.5,205.9,359.8,205.9z M377.1,94.9h254.6c15.9,0,49.1,27,49.1,42.9l-9.8,9.8H338.4l-9.8-9.8C328.5,121.9,361.2,94.9,377.1,94.9z M799.7,597.8c21.9,21.4,4.2,74.1-39.2,117.5c-42.9,43.4-95.6,60.7-117.1,39.2c-21.9-21.4-4.2-74.2,39.2-117.6C725.5,593.5,778.2,576.3,799.7,597.8z M212.9,597.8c21.5-21.5,74.2-4.2,117.6,39.1c42.9,43.4,60.6,96.1,39.2,117.6c-21.9,21.5-74.2,4.2-117.5-39.2C208.7,671.9,191.5,619.2,212.9,597.8z"/></g>
</svg>